<svg xmlns="http://www.w3.org/2000/svg" viewBox="0 0 300 300" width="300" height="300"><defs><linearGradient id="g" x1="0" y1="0" x2="1" y2="1"><stop offset="0" stop-color="#7f1d1d"/><stop offset="1" stop-color="#1c1917"/></linearGradient></defs><rect width="300" height="300" rx="28" fill="url(#g)"/><ellipse cx="150" cy="248" rx="86" ry="10" fill="#000" opacity=".18"/><rect x="90" y="190" width="120" height="14" rx="6" fill="#9ca3af"/><rect x="96" y="204" width="10" height="38" fill="#6b7280"/><rect x="194" y="204" width="10" height="38" fill="#6b7280"/><path d="M96 190 l12 -28 h84 l12 28z" fill="#6b7280"/><path d="M150 162 q-46 -36 -18 -74 q4 24 22 28 q-6 -34 22 -52 q-4 40 24 54 q18 36 -50 44z" fill="#f97316"/><path d="M152 160 q-26 -18 -8 -40 q4 12 14 12 q-4 -18 10 -28 q4 22 12 30 q6 20 -28 26z" fill="#fde047"/></svg>