<svg xmlns="http://www.w3.org/2000/svg" viewBox="0 0 300 300" width="300" height="300"><defs><linearGradient id="g" x1="0" y1="0" x2="1" y2="1"><stop offset="0" stop-color="#15803d"/><stop offset="1" stop-color="#14532d"/></linearGradient></defs><rect width="300" height="300" rx="28" fill="url(#g)"/><ellipse cx="150" cy="248" rx="104" ry="10" fill="#000" opacity=".18"/><circle cx="110" cy="176" r="46" fill="#ef4444"/><path d="M96 138 q14 -16 28 0 q-14 8 -28 0z" fill="#16a34a"/><path d="M92 170 q6 -22 22 -28" fill="none" stroke="#fca5a5" stroke-width="7" stroke-linecap="round"/><path d="M180 112 l44 0 l-22 128z" fill="#f97316"/><path d="M190 112 q-4 -34 12 -40 M202 112 q0 -30 14 -34 M212 112 q10 -26 22 -26" fill="none" stroke="#22c55e" stroke-width="8" stroke-linecap="round"/><path d="M186 140 h32 M192 168 h22 M196 196 h14" stroke="#c2410c" stroke-width="4" opacity=".6"/></svg>